<svg xmlns="http://www.w3.org/2000/svg" viewBox="0 0 680 1050">
  <rect width="680" height="1050" fill="#4caf50"/>
  <rect x="5" y="5" width="670" height="1040" fill="none" stroke="#fff" stroke-width="2"/>
  <line x1="5" y1="525" x2="675" y2="525" stroke="#fff" stroke-width="2"/>
  <circle cx="340" cy="525" r="91.5" fill="none" stroke="#fff" stroke-width="2"/>
  <circle cx="340" cy="525" r="3" fill="#fff" stroke="#fff" stroke-width="2"/>
  <rect x="133.5" y="5" width="413" height="165" fill="none" stroke="#fff" stroke-width="2"/>
  <rect x="243.5" y="5" width="193" height="55" fill="none" stroke="#fff" stroke-width="2"/>
  <circle cx="340" cy="110" r="3" fill="#fff" stroke="#fff" stroke-width="2"/>
  <path d="M 340,110 a 91.5,91.5 0 0 1 -73,88" fill="none" stroke="#fff" stroke-width="2"/>
  <path d="M 340,110 a 91.5,91.5 0 0 0 73,88" fill="none" stroke="#fff" stroke-width="2"/>
  <rect x="133.5" y="880" width="413" height="165" fill="none" stroke="#fff" stroke-width="2"/>
  <rect x="243.5" y="990" width="193" height="55" fill="none" stroke="#fff" stroke-width="2"/>
  <circle cx="340" cy="940" r="3" fill="#fff" stroke="#fff" stroke-width="2"/>
  <path d="M 340,940 a 91.5,91.5 0 0 0 -73,-88" fill="none" stroke="#fff" stroke-width="2"/>
  <path d="M 340,940 a 91.5,91.5 0 0 1 73,-88" fill="none" stroke="#fff" stroke-width="2"/>
</svg>